<mxfile host="app.diagrams.net" modified="2022-06-29T14:20:03.786Z" agent="5.0 (Windows NT 10.0; Win64; x64) AppleWebKit/537.36 (KHTML, like Gecko) Chrome/103.0.0.0 Safari/537.36" etag="2BHR_4vynMr7xBHsGCiM" version="20.0.4" type="github">
  <diagram id="Co-2WPKWJgHfXNtiyIEY" name="Page-1">
    <mxGraphModel dx="782" dy="436" grid="1" gridSize="10" guides="1" tooltips="1" connect="1" arrows="1" fold="1" page="1" pageScale="1" pageWidth="827" pageHeight="1169" math="0" shadow="0">
      <root>
        <mxCell id="0" />
        <mxCell id="1" parent="0" />
        <mxCell id="ZYXcEdyXvduLh-ddOtvL-9" value="" style="rounded=0;whiteSpace=wrap;html=1;fillColor=#f8cecc;strokeColor=#FFCCE6;strokeWidth=2;" vertex="1" parent="1">
          <mxGeometry x="160" y="280" width="440" height="135" as="geometry" />
        </mxCell>
        <mxCell id="ZYXcEdyXvduLh-ddOtvL-1" value="" style="rounded=0;whiteSpace=wrap;html=1;fillColor=#fff2cc;strokeColor=#d6b656;strokeWidth=2;" vertex="1" parent="1">
          <mxGeometry x="160" y="27" width="440" height="205" as="geometry" />
        </mxCell>
        <mxCell id="ZYXcEdyXvduLh-ddOtvL-2" value="&lt;b&gt;HttpClient&lt;/b&gt;" style="rounded=0;whiteSpace=wrap;html=1;strokeColor=#CC6600;strokeWidth=1;fillColor=default;dashed=1;" vertex="1" parent="1">
          <mxGeometry x="320" y="42" width="160" height="60" as="geometry" />
        </mxCell>
        <mxCell id="ZYXcEdyXvduLh-ddOtvL-7" style="edgeStyle=orthogonalEdgeStyle;rounded=0;orthogonalLoop=1;jettySize=auto;html=1;entryX=0.5;entryY=1;entryDx=0;entryDy=0;strokeColor=#994C00;" edge="1" parent="1" source="ZYXcEdyXvduLh-ddOtvL-3" target="ZYXcEdyXvduLh-ddOtvL-2">
          <mxGeometry relative="1" as="geometry" />
        </mxCell>
        <mxCell id="ZYXcEdyXvduLh-ddOtvL-14" style="edgeStyle=orthogonalEdgeStyle;rounded=0;orthogonalLoop=1;jettySize=auto;html=1;entryX=0.5;entryY=0;entryDx=0;entryDy=0;strokeColor=#994C00;" edge="1" parent="1" source="ZYXcEdyXvduLh-ddOtvL-3" target="ZYXcEdyXvduLh-ddOtvL-10">
          <mxGeometry relative="1" as="geometry">
            <Array as="points">
              <mxPoint x="330" y="264" />
              <mxPoint x="270" y="264" />
            </Array>
          </mxGeometry>
        </mxCell>
        <mxCell id="ZYXcEdyXvduLh-ddOtvL-15" style="edgeStyle=orthogonalEdgeStyle;rounded=0;orthogonalLoop=1;jettySize=auto;html=1;entryX=0.5;entryY=0;entryDx=0;entryDy=0;strokeColor=#994C00;" edge="1" parent="1" source="ZYXcEdyXvduLh-ddOtvL-3" target="ZYXcEdyXvduLh-ddOtvL-11">
          <mxGeometry relative="1" as="geometry">
            <Array as="points">
              <mxPoint x="450" y="263" />
              <mxPoint x="502" y="263" />
            </Array>
          </mxGeometry>
        </mxCell>
        <mxCell id="ZYXcEdyXvduLh-ddOtvL-3" value="&lt;b&gt;RemoteAuthentication&lt;/b&gt;" style="rounded=0;whiteSpace=wrap;html=1;strokeColor=#CC6600;strokeWidth=1;fillColor=default;" vertex="1" parent="1">
          <mxGeometry x="280" y="148" width="240" height="60" as="geometry" />
        </mxCell>
        <mxCell id="ZYXcEdyXvduLh-ddOtvL-8" value="&lt;b&gt;Data&lt;/b&gt;" style="text;html=1;strokeColor=none;fillColor=none;align=center;verticalAlign=middle;whiteSpace=wrap;rounded=0;dashed=1;" vertex="1" parent="1">
          <mxGeometry x="540" y="5" width="60" height="30" as="geometry" />
        </mxCell>
        <mxCell id="ZYXcEdyXvduLh-ddOtvL-13" value="" style="edgeStyle=orthogonalEdgeStyle;rounded=0;orthogonalLoop=1;jettySize=auto;html=1;strokeColor=#994C00;" edge="1" parent="1" source="ZYXcEdyXvduLh-ddOtvL-10" target="ZYXcEdyXvduLh-ddOtvL-11">
          <mxGeometry relative="1" as="geometry">
            <Array as="points">
              <mxPoint x="410" y="350" />
              <mxPoint x="410" y="350" />
            </Array>
          </mxGeometry>
        </mxCell>
        <mxCell id="ZYXcEdyXvduLh-ddOtvL-10" value="&lt;b&gt;Authentication&lt;/b&gt;" style="rounded=0;whiteSpace=wrap;html=1;strokeColor=#CC6600;strokeWidth=1;fillColor=default;dashed=1;" vertex="1" parent="1">
          <mxGeometry x="190" y="320" width="160" height="60" as="geometry" />
        </mxCell>
        <mxCell id="ZYXcEdyXvduLh-ddOtvL-11" value="&lt;b&gt;Account&lt;/b&gt;" style="rounded=0;whiteSpace=wrap;html=1;strokeColor=#CC6600;strokeWidth=1;fillColor=default;dashed=1;" vertex="1" parent="1">
          <mxGeometry x="430" y="317.5" width="144" height="60" as="geometry" />
        </mxCell>
      </root>
    </mxGraphModel>
  </diagram>
</mxfile>
